<?xml version="1.0" encoding="UTF-8"?>
<svg xmlns="http://www.w3.org/2000/svg" id="Layer_1" version="1.1" viewBox="0 0 32 32">
  <defs>
    <style>
      .st0 {
        fill: #2e3191;
      }

      .st1 {
        fill: #f1e8ff;
      }
    </style>
  </defs>
  <path id="Path_25662" class="st0" d="M26.2,8.4c0-.8-.7-1.4-1.5-1.4H7.3c-.8,0-1.4.6-1.5,1.4l-1.8,22c0,.8.5,1.5,1.4,1.6h0s0,0,.1,0h21c.8,0,1.5-.7,1.5-1.5h0c0-.1-1.8-22.1-1.8-22.1Z"></path>
  <g id="CIRCLE">
    <path id="Path_25676" class="st1" d="M9,10.5c0-.8.7-1.5,1.5-1.5s1.5.7,1.5,1.5-.7,1.5-1.5,1.5-1.5-.7-1.5-1.5Z"></path>
  </g>
  <g id="CIRCLE-2">
    <path id="Path_25677" class="st1" d="M20,10.5c0-.8.7-1.5,1.5-1.5s1.5.7,1.5,1.5-.7,1.5-1.5,1.5-1.5-.7-1.5-1.5Z"></path>
  </g>
  <g id="Group_22071">
    <g id="LWPOLYLINE">
      <path id="Path_25678" class="st1" d="M10.2,18.8c-.3,0-.5.2-.5.5s.2.5.5.5h1.8c.3,0,.5-.2.5-.5s-.2-.5-.5-.5h-1.8Z"></path>
    </g>
    <g id="LWPOLYLINE-2">
      <path id="Path_25679" class="st1" d="M14,15c0-.3.2-.5.5-.5s.5.2.5.5v1.8c0,.3-.2.5-.5.5s-.5-.2-.5-.5v-1.8Z"></path>
    </g>
    <g id="LWPOLYLINE-3">
      <path id="Path_25680" class="st1" d="M17.9,16.6c.2-.2.2-.5,0-.7-.2-.2-.5-.2-.7,0l-1.2,1.2c-.2.2-.2.5,0,.7.2.2.5.2.7,0l1.2-1.2Z"></path>
    </g>
    <g id="LWPOLYLINE-4">
      <path id="Path_25681" class="st1" d="M11.2,16.6c-.2-.2-.2-.5,0-.7.2-.2.5-.2.7,0l1.2,1.2c.2.2.2.5,0,.7-.2.2-.5.2-.7,0l-1.2-1.2Z"></path>
    </g>
    <g id="LWPOLYLINE-5">
      <path id="Path_25682" class="st1" d="M11.2,21.9c-.2.2-.2.5,0,.7.2.2.5.2.7,0l1.2-1.2c.2-.2.2-.5,0-.7-.2-.2-.5-.2-.7,0l-1.2,1.2Z"></path>
    </g>
    <path id="Path_25683" class="st1" d="M22.1,24.7l-2.1-2.1,1-.5c.2-.1.3-.4.2-.7,0,0-.1-.2-.2-.2l-6.5-2.7c-.3-.1-.5,0-.7.3,0,.1,0,.3,0,.4l2.7,6.5c.1.3.4.4.7.3.1,0,.2-.1.2-.2l.5-1,2.1,2.1c.2.2.5.2.7,0h0s1.4-1.4,1.4-1.4c.2-.2.2-.5,0-.7h0ZM20.3,25.8l-2.3-2.3c-.2-.2-.5-.2-.7,0,0,0,0,0,0,.1l-.4.7-1.8-4.4,4.4,1.8-.7.4c-.2.1-.3.4-.2.7,0,0,0,0,0,.1l2.3,2.3-.7.7Z"></path>
  </g>
  <path id="Path_25665" class="st0" d="M20.8,6v1h1.2v-1c0-3.3-2.7-6-6-6s-6,2.7-6,6v1h1.2v-1c0-2.6,2.1-4.8,4.8-4.8s4.8,2.1,4.8,4.8h0Z"></path>
</svg>
